<svg xmlns="http://www.w3.org/2000/svg" viewBox="0 0 800 600" width="800" height="600"><rect fill="#fafaf9" width="800" height="600"/><g fill="none" stroke="#8c7851" stroke-width="1.2" opacity="0.18"><rect x="120" y="80" width="560" height="440" rx="2"/><line x1="420" y1="80" x2="420" y2="520"/><line x1="420" y1="300" x2="680" y2="300"/><line x1="120" y1="340" x2="420" y2="340"/><rect x="160" y="120" width="220" height="180" rx="1" stroke-dasharray="4 3"/><rect x="460" y="120" width="180" height="140" rx="1" stroke-dasharray="4 3"/><rect x="160" y="380" width="220" height="100" rx="1" stroke-dasharray="4 3"/><rect x="460" y="340" width="180" height="140" rx="1" stroke-dasharray="4 3"/><line x1="120" y1="260" x2="140" y2="260" stroke-width="2.4"/><line x1="660" y1="300" x2="680" y2="300" stroke-width="2.4"/><circle cx="420" cy="300" r="3" fill="#8c7851" opacity="0.25"/></g><g font-family="sans-serif" font-size="11" fill="#78716c" opacity="0.35" text-anchor="middle"><text x="270" y="215">Living</text><text x="270" y="230">62 m²</text><text x="550" y="195">Bedroom 1</text><text x="270" y="435">Bedroom 2</text><text x="550" y="415">Bedroom 3</text></g></svg>
